<mxfile host="app.diagrams.net" agent="Mozilla/5.0 (Windows NT 10.0; Win64; x64) AppleWebKit/537.36 (KHTML, like Gecko) Chrome/129.0.0.0 Safari/537.36" version="24.8.0">
  <diagram name="Page-1" id="Zmpej-07BhPeuHLy_qQ5">
    <mxGraphModel dx="2087" dy="1094" grid="0" gridSize="10" guides="1" tooltips="1" connect="1" arrows="1" fold="1" page="0" pageScale="1" pageWidth="850" pageHeight="1100" math="0" shadow="0">
      <root>
        <mxCell id="0" />
        <mxCell id="1" parent="0" />
        <mxCell id="Cv_Al_MdcD2OkNO3VASJ-133" value="&lt;font style=&quot;font-size: 24px;&quot;&gt;U&lt;/font&gt;" style="text;html=1;align=center;verticalAlign=middle;whiteSpace=wrap;rounded=0;fontSize=17;fontFamily=Helvetica;fontColor=default;labelBackgroundColor=default;rotation=-210;" vertex="1" parent="1">
          <mxGeometry x="310" y="140" width="60" height="30" as="geometry" />
        </mxCell>
        <mxCell id="Cv_Al_MdcD2OkNO3VASJ-129" value="&lt;font style=&quot;font-size: 24px;&quot;&gt;U&lt;/font&gt;" style="text;html=1;align=center;verticalAlign=middle;whiteSpace=wrap;rounded=0;fontSize=17;fontFamily=Helvetica;fontColor=default;labelBackgroundColor=default;rotation=30;" vertex="1" parent="1">
          <mxGeometry x="300" y="280" width="60" height="30" as="geometry" />
        </mxCell>
        <mxCell id="Cv_Al_MdcD2OkNO3VASJ-99" value="new team" style="text;html=1;align=center;verticalAlign=middle;whiteSpace=wrap;rounded=0;fontSize=17;fontFamily=Helvetica;fontColor=default;labelBackgroundColor=default;" vertex="1" parent="1">
          <mxGeometry x="-80" y="170" width="120" height="30" as="geometry" />
        </mxCell>
        <mxCell id="Cv_Al_MdcD2OkNO3VASJ-98" value="original team" style="text;html=1;align=center;verticalAlign=middle;whiteSpace=wrap;rounded=0;fontSize=17;fontFamily=Helvetica;fontColor=default;labelBackgroundColor=default;" vertex="1" parent="1">
          <mxGeometry x="-60" y="130" width="120" height="30" as="geometry" />
        </mxCell>
        <mxCell id="Cv_Al_MdcD2OkNO3VASJ-87" value="n" style="edgeStyle=none;shape=connector;curved=0;rounded=0;orthogonalLoop=1;jettySize=auto;html=1;exitX=1;exitY=0.5;exitDx=0;exitDy=0;entryX=0;entryY=0.75;entryDx=0;entryDy=0;strokeColor=default;align=center;verticalAlign=middle;fontFamily=Helvetica;fontSize=17;fontColor=default;labelBackgroundColor=default;startSize=8;endArrow=none;endFill=0;endSize=8;" edge="1" parent="1" source="Cv_Al_MdcD2OkNO3VASJ-82" target="Cv_Al_MdcD2OkNO3VASJ-39">
          <mxGeometry x="-1" y="10" relative="1" as="geometry">
            <mxPoint as="offset" />
          </mxGeometry>
        </mxCell>
        <mxCell id="Cv_Al_MdcD2OkNO3VASJ-31" style="edgeStyle=none;shape=connector;curved=0;rounded=0;orthogonalLoop=1;jettySize=auto;html=1;exitX=0.25;exitY=1;exitDx=0;exitDy=0;entryX=0.5;entryY=0;entryDx=0;entryDy=0;strokeColor=default;align=center;verticalAlign=middle;fontFamily=Helvetica;fontSize=17;fontColor=default;labelBackgroundColor=default;startSize=8;endArrow=none;endFill=0;endSize=8;" edge="1" parent="1" source="Cv_Al_MdcD2OkNO3VASJ-6" target="Cv_Al_MdcD2OkNO3VASJ-29">
          <mxGeometry relative="1" as="geometry" />
        </mxCell>
        <mxCell id="Cv_Al_MdcD2OkNO3VASJ-32" style="edgeStyle=none;shape=connector;curved=0;rounded=0;orthogonalLoop=1;jettySize=auto;html=1;exitX=0.75;exitY=1;exitDx=0;exitDy=0;entryX=0.5;entryY=0;entryDx=0;entryDy=0;strokeColor=default;align=center;verticalAlign=middle;fontFamily=Helvetica;fontSize=17;fontColor=default;labelBackgroundColor=default;startSize=8;endArrow=none;endFill=0;endSize=8;" edge="1" parent="1" source="Cv_Al_MdcD2OkNO3VASJ-6" target="Cv_Al_MdcD2OkNO3VASJ-30">
          <mxGeometry relative="1" as="geometry" />
        </mxCell>
        <mxCell id="Cv_Al_MdcD2OkNO3VASJ-45" value="n" style="edgeStyle=none;shape=connector;curved=0;rounded=0;orthogonalLoop=1;jettySize=auto;html=1;exitX=0;exitY=0.5;exitDx=0;exitDy=0;entryX=0.5;entryY=1;entryDx=0;entryDy=0;strokeColor=default;align=center;verticalAlign=middle;fontFamily=Helvetica;fontSize=17;fontColor=default;labelBackgroundColor=default;startSize=8;endArrow=none;endFill=0;endSize=8;" edge="1" parent="1" source="Cv_Al_MdcD2OkNO3VASJ-6" target="Cv_Al_MdcD2OkNO3VASJ-44">
          <mxGeometry x="0.875" y="-10" relative="1" as="geometry">
            <Array as="points">
              <mxPoint x="-220" y="420" />
            </Array>
            <mxPoint as="offset" />
          </mxGeometry>
        </mxCell>
        <mxCell id="Cv_Al_MdcD2OkNO3VASJ-6" value="Asset" style="shape=ext;margin=3;double=1;whiteSpace=wrap;html=1;align=center;rounded=0;strokeColor=default;verticalAlign=middle;fontFamily=Helvetica;fontSize=17;fontColor=default;fillColor=default;" vertex="1" parent="1">
          <mxGeometry x="-180" y="400" width="100" height="40" as="geometry" />
        </mxCell>
        <mxCell id="Cv_Al_MdcD2OkNO3VASJ-64" value="1" style="edgeStyle=none;shape=connector;curved=0;rounded=0;orthogonalLoop=1;jettySize=auto;html=1;exitX=0.25;exitY=1;exitDx=0;exitDy=0;entryX=0.5;entryY=0;entryDx=0;entryDy=0;strokeColor=default;align=center;verticalAlign=middle;fontFamily=Helvetica;fontSize=17;fontColor=default;labelBackgroundColor=default;startSize=8;endArrow=none;endFill=0;endSize=8;" edge="1" parent="1" source="Cv_Al_MdcD2OkNO3VASJ-7" target="Cv_Al_MdcD2OkNO3VASJ-44">
          <mxGeometry x="0.6766" y="11" relative="1" as="geometry">
            <mxPoint as="offset" />
          </mxGeometry>
        </mxCell>
        <mxCell id="Cv_Al_MdcD2OkNO3VASJ-95" value="1" style="edgeStyle=none;shape=connector;curved=0;rounded=0;orthogonalLoop=1;jettySize=auto;html=1;exitX=1;exitY=0.25;exitDx=0;exitDy=0;entryX=0.5;entryY=0;entryDx=0;entryDy=0;strokeColor=default;align=center;verticalAlign=middle;fontFamily=Helvetica;fontSize=17;fontColor=default;labelBackgroundColor=default;startSize=8;endArrow=none;endFill=0;endSize=8;" edge="1" parent="1" source="Cv_Al_MdcD2OkNO3VASJ-7" target="Cv_Al_MdcD2OkNO3VASJ-94">
          <mxGeometry x="1" y="10" relative="1" as="geometry">
            <mxPoint x="1" as="offset" />
          </mxGeometry>
        </mxCell>
        <mxCell id="Cv_Al_MdcD2OkNO3VASJ-96" value="1" style="edgeStyle=none;shape=connector;curved=0;rounded=0;orthogonalLoop=1;jettySize=auto;html=1;exitX=1;exitY=0.5;exitDx=0;exitDy=0;entryX=0;entryY=0.5;entryDx=0;entryDy=0;strokeColor=default;align=center;verticalAlign=middle;fontFamily=Helvetica;fontSize=17;fontColor=default;labelBackgroundColor=default;startSize=8;endArrow=none;endFill=0;endSize=8;" edge="1" parent="1" source="Cv_Al_MdcD2OkNO3VASJ-7" target="Cv_Al_MdcD2OkNO3VASJ-94">
          <mxGeometry x="1" y="-10" relative="1" as="geometry">
            <mxPoint x="1" as="offset" />
          </mxGeometry>
        </mxCell>
        <mxCell id="Cv_Al_MdcD2OkNO3VASJ-7" value="Team" style="whiteSpace=wrap;html=1;align=center;rounded=0;strokeColor=default;verticalAlign=middle;fontFamily=Helvetica;fontSize=17;fontColor=default;fillColor=default;" vertex="1" parent="1">
          <mxGeometry x="-180" y="150" width="100" height="40" as="geometry" />
        </mxCell>
        <mxCell id="Cv_Al_MdcD2OkNO3VASJ-11" value="1" style="edgeStyle=none;curved=1;rounded=0;orthogonalLoop=1;jettySize=auto;html=1;exitX=0.5;exitY=0;exitDx=0;exitDy=0;entryX=0.9;entryY=1;entryDx=0;entryDy=0;fontFamily=Helvetica;fontSize=17;fontColor=default;startSize=8;endSize=8;endArrow=none;endFill=0;entryPerimeter=0;" edge="1" parent="1" source="Cv_Al_MdcD2OkNO3VASJ-13" target="Cv_Al_MdcD2OkNO3VASJ-7">
          <mxGeometry x="-0.6" y="-10" relative="1" as="geometry">
            <mxPoint x="-130" y="290" as="sourcePoint" />
            <mxPoint as="offset" />
          </mxGeometry>
        </mxCell>
        <mxCell id="Cv_Al_MdcD2OkNO3VASJ-12" value="n" style="edgeStyle=none;shape=link;curved=1;rounded=0;orthogonalLoop=1;jettySize=auto;html=1;exitX=0.5;exitY=1;exitDx=0;exitDy=0;entryX=0.9;entryY=0;entryDx=0;entryDy=0;strokeColor=default;align=center;verticalAlign=middle;fontFamily=Helvetica;fontSize=17;fontColor=default;labelBackgroundColor=default;endArrow=none;endFill=0;entryPerimeter=0;" edge="1" parent="1" source="Cv_Al_MdcD2OkNO3VASJ-13" target="Cv_Al_MdcD2OkNO3VASJ-6">
          <mxGeometry x="-0.6" y="10" relative="1" as="geometry">
            <mxPoint x="-130" y="360" as="sourcePoint" />
            <mxPoint as="offset" />
          </mxGeometry>
        </mxCell>
        <mxCell id="Cv_Al_MdcD2OkNO3VASJ-13" value="Owns" style="shape=rhombus;double=1;perimeter=rhombusPerimeter;whiteSpace=wrap;html=1;align=center;rounded=0;strokeColor=default;verticalAlign=middle;fontFamily=Helvetica;fontSize=17;fontColor=default;labelBackgroundColor=default;fillColor=default;" vertex="1" parent="1">
          <mxGeometry x="-150" y="290" width="120" height="60" as="geometry" />
        </mxCell>
        <mxCell id="Cv_Al_MdcD2OkNO3VASJ-29" value="&lt;span style=&quot;border-bottom: 1px dotted; font-size: 17px;&quot;&gt;Round&lt;/span&gt;" style="ellipse;whiteSpace=wrap;html=1;align=center;rounded=0;strokeColor=default;verticalAlign=middle;fontFamily=Helvetica;fontSize=17;fontColor=default;labelBackgroundColor=default;fillColor=default;" vertex="1" parent="1">
          <mxGeometry x="-250" y="460" width="100" height="40" as="geometry" />
        </mxCell>
        <mxCell id="Cv_Al_MdcD2OkNO3VASJ-30" value="&lt;span style=&quot;border-bottom: 1px dotted; font-size: 17px;&quot;&gt;Year&lt;/span&gt;" style="ellipse;whiteSpace=wrap;html=1;align=center;rounded=0;strokeColor=default;verticalAlign=middle;fontFamily=Helvetica;fontSize=17;fontColor=default;labelBackgroundColor=default;fillColor=default;" vertex="1" parent="1">
          <mxGeometry x="-120" y="460" width="100" height="40" as="geometry" />
        </mxCell>
        <mxCell id="Cv_Al_MdcD2OkNO3VASJ-65" style="edgeStyle=none;shape=connector;curved=0;rounded=0;orthogonalLoop=1;jettySize=auto;html=1;exitX=1;exitY=0.5;exitDx=0;exitDy=0;entryX=0;entryY=1;entryDx=0;entryDy=0;strokeColor=default;align=center;verticalAlign=middle;fontFamily=Helvetica;fontSize=17;fontColor=default;labelBackgroundColor=default;startSize=8;endArrow=none;endFill=0;endSize=8;" edge="1" parent="1" source="Cv_Al_MdcD2OkNO3VASJ-33" target="Cv_Al_MdcD2OkNO3VASJ-7">
          <mxGeometry relative="1" as="geometry" />
        </mxCell>
        <mxCell id="Cv_Al_MdcD2OkNO3VASJ-33" value="team_id" style="ellipse;whiteSpace=wrap;html=1;align=center;fontStyle=4;rounded=0;strokeColor=default;verticalAlign=middle;fontFamily=Helvetica;fontSize=17;fontColor=default;labelBackgroundColor=default;fillColor=default;" vertex="1" parent="1">
          <mxGeometry x="-410" y="290" width="100" height="40" as="geometry" />
        </mxCell>
        <mxCell id="Cv_Al_MdcD2OkNO3VASJ-70" style="edgeStyle=none;shape=connector;curved=0;rounded=0;orthogonalLoop=1;jettySize=auto;html=1;exitX=1;exitY=0.5;exitDx=0;exitDy=0;entryX=0;entryY=0;entryDx=0;entryDy=0;strokeColor=default;align=center;verticalAlign=middle;fontFamily=Helvetica;fontSize=17;fontColor=default;labelBackgroundColor=default;startSize=8;endArrow=none;endFill=0;endSize=8;" edge="1" parent="1" source="Cv_Al_MdcD2OkNO3VASJ-34" target="Cv_Al_MdcD2OkNO3VASJ-7">
          <mxGeometry relative="1" as="geometry" />
        </mxCell>
        <mxCell id="Cv_Al_MdcD2OkNO3VASJ-34" value="team_name" style="ellipse;whiteSpace=wrap;html=1;align=center;rounded=0;strokeColor=default;verticalAlign=middle;fontFamily=Helvetica;fontSize=17;fontColor=default;labelBackgroundColor=default;fillColor=default;" vertex="1" parent="1">
          <mxGeometry x="-410" y="40" width="100" height="40" as="geometry" />
        </mxCell>
        <mxCell id="Cv_Al_MdcD2OkNO3VASJ-69" style="edgeStyle=none;shape=connector;curved=0;rounded=0;orthogonalLoop=1;jettySize=auto;html=1;exitX=1;exitY=0.5;exitDx=0;exitDy=0;entryX=0;entryY=0.25;entryDx=0;entryDy=0;strokeColor=default;align=center;verticalAlign=middle;fontFamily=Helvetica;fontSize=17;fontColor=default;labelBackgroundColor=default;startSize=8;endArrow=none;endFill=0;endSize=8;" edge="1" parent="1" source="Cv_Al_MdcD2OkNO3VASJ-35" target="Cv_Al_MdcD2OkNO3VASJ-7">
          <mxGeometry relative="1" as="geometry" />
        </mxCell>
        <mxCell id="Cv_Al_MdcD2OkNO3VASJ-35" value="division" style="ellipse;whiteSpace=wrap;html=1;align=center;rounded=0;strokeColor=default;verticalAlign=middle;fontFamily=Helvetica;fontSize=17;fontColor=default;labelBackgroundColor=default;fillColor=default;" vertex="1" parent="1">
          <mxGeometry x="-410" y="90" width="100" height="40" as="geometry" />
        </mxCell>
        <mxCell id="Cv_Al_MdcD2OkNO3VASJ-68" style="edgeStyle=none;shape=connector;curved=0;rounded=0;orthogonalLoop=1;jettySize=auto;html=1;exitX=1;exitY=0.5;exitDx=0;exitDy=0;entryX=0;entryY=0.5;entryDx=0;entryDy=0;strokeColor=default;align=center;verticalAlign=middle;fontFamily=Helvetica;fontSize=17;fontColor=default;labelBackgroundColor=default;startSize=8;endArrow=none;endFill=0;endSize=8;" edge="1" parent="1" source="Cv_Al_MdcD2OkNO3VASJ-36" target="Cv_Al_MdcD2OkNO3VASJ-7">
          <mxGeometry relative="1" as="geometry" />
        </mxCell>
        <mxCell id="Cv_Al_MdcD2OkNO3VASJ-36" value="cap_space" style="ellipse;whiteSpace=wrap;html=1;align=center;rounded=0;strokeColor=default;verticalAlign=middle;fontFamily=Helvetica;fontSize=17;fontColor=default;labelBackgroundColor=default;fillColor=default;" vertex="1" parent="1">
          <mxGeometry x="-410" y="140" width="100" height="40" as="geometry" />
        </mxCell>
        <mxCell id="Cv_Al_MdcD2OkNO3VASJ-67" style="edgeStyle=none;shape=connector;curved=0;rounded=0;orthogonalLoop=1;jettySize=auto;html=1;exitX=1;exitY=0.5;exitDx=0;exitDy=0;strokeColor=default;align=center;verticalAlign=middle;fontFamily=Helvetica;fontSize=17;fontColor=default;labelBackgroundColor=default;startSize=8;endArrow=none;endFill=0;endSize=8;" edge="1" parent="1" source="Cv_Al_MdcD2OkNO3VASJ-37">
          <mxGeometry relative="1" as="geometry">
            <mxPoint x="-180" y="180" as="targetPoint" />
          </mxGeometry>
        </mxCell>
        <mxCell id="Cv_Al_MdcD2OkNO3VASJ-37" value="cap_hit" style="ellipse;whiteSpace=wrap;html=1;align=center;rounded=0;strokeColor=default;verticalAlign=middle;fontFamily=Helvetica;fontSize=17;fontColor=default;labelBackgroundColor=default;fillColor=default;" vertex="1" parent="1">
          <mxGeometry x="-410" y="190" width="100" height="40" as="geometry" />
        </mxCell>
        <mxCell id="Cv_Al_MdcD2OkNO3VASJ-66" style="edgeStyle=none;shape=connector;curved=0;rounded=0;orthogonalLoop=1;jettySize=auto;html=1;exitX=1;exitY=0.5;exitDx=0;exitDy=0;entryX=0;entryY=0.75;entryDx=0;entryDy=0;strokeColor=default;align=center;verticalAlign=middle;fontFamily=Helvetica;fontSize=17;fontColor=default;labelBackgroundColor=default;startSize=8;endArrow=none;endFill=0;endSize=8;" edge="1" parent="1" source="Cv_Al_MdcD2OkNO3VASJ-38" target="Cv_Al_MdcD2OkNO3VASJ-7">
          <mxGeometry relative="1" as="geometry" />
        </mxCell>
        <mxCell id="Cv_Al_MdcD2OkNO3VASJ-38" value="roster_size" style="ellipse;whiteSpace=wrap;html=1;align=center;rounded=0;strokeColor=default;verticalAlign=middle;fontFamily=Helvetica;fontSize=17;fontColor=default;labelBackgroundColor=default;fillColor=default;" vertex="1" parent="1">
          <mxGeometry x="-410" y="240" width="100" height="40" as="geometry" />
        </mxCell>
        <mxCell id="Cv_Al_MdcD2OkNO3VASJ-39" value="Player" style="whiteSpace=wrap;html=1;align=center;rounded=0;strokeColor=default;verticalAlign=middle;fontFamily=Helvetica;fontSize=17;fontColor=default;fillColor=default;" vertex="1" parent="1">
          <mxGeometry x="210" y="370" width="100" height="40" as="geometry" />
        </mxCell>
        <mxCell id="Cv_Al_MdcD2OkNO3VASJ-121" style="edgeStyle=none;shape=connector;curved=0;rounded=0;orthogonalLoop=1;jettySize=auto;html=1;exitX=0;exitY=0.5;exitDx=0;exitDy=0;entryX=1;entryY=0.5;entryDx=0;entryDy=0;strokeColor=default;align=center;verticalAlign=middle;fontFamily=Helvetica;fontSize=17;fontColor=default;labelBackgroundColor=default;startSize=8;endArrow=none;endFill=0;endSize=8;" edge="1" parent="1" source="Cv_Al_MdcD2OkNO3VASJ-40" target="Cv_Al_MdcD2OkNO3VASJ-120">
          <mxGeometry relative="1" as="geometry" />
        </mxCell>
        <mxCell id="Cv_Al_MdcD2OkNO3VASJ-40" value="Person" style="whiteSpace=wrap;html=1;align=center;rounded=0;strokeColor=default;verticalAlign=middle;fontFamily=Helvetica;fontSize=17;fontColor=default;fillColor=default;" vertex="1" parent="1">
          <mxGeometry x="430" y="190" width="100" height="40" as="geometry" />
        </mxCell>
        <mxCell id="Cv_Al_MdcD2OkNO3VASJ-41" value="Coach" style="whiteSpace=wrap;html=1;align=center;rounded=0;strokeColor=default;verticalAlign=middle;fontFamily=Helvetica;fontSize=17;fontColor=default;fillColor=default;" vertex="1" parent="1">
          <mxGeometry x="170" y="20" width="100" height="40" as="geometry" />
        </mxCell>
        <mxCell id="Cv_Al_MdcD2OkNO3VASJ-114" style="edgeStyle=none;shape=connector;curved=0;rounded=0;orthogonalLoop=1;jettySize=auto;html=1;exitX=0;exitY=0.5;exitDx=0;exitDy=0;entryX=1;entryY=1;entryDx=0;entryDy=0;strokeColor=default;align=center;verticalAlign=middle;fontFamily=Helvetica;fontSize=17;fontColor=default;labelBackgroundColor=default;startSize=8;endArrow=none;endFill=0;endSize=8;" edge="1" parent="1" source="Cv_Al_MdcD2OkNO3VASJ-42" target="Cv_Al_MdcD2OkNO3VASJ-40">
          <mxGeometry relative="1" as="geometry" />
        </mxCell>
        <mxCell id="Cv_Al_MdcD2OkNO3VASJ-42" value="person_id" style="ellipse;whiteSpace=wrap;html=1;align=center;fontStyle=4;rounded=0;strokeColor=default;verticalAlign=middle;fontFamily=Helvetica;fontSize=17;fontColor=default;labelBackgroundColor=default;fillColor=default;" vertex="1" parent="1">
          <mxGeometry x="580" y="240" width="100" height="40" as="geometry" />
        </mxCell>
        <mxCell id="Cv_Al_MdcD2OkNO3VASJ-109" style="edgeStyle=none;shape=connector;curved=0;rounded=0;orthogonalLoop=1;jettySize=auto;html=1;exitX=0;exitY=0.5;exitDx=0;exitDy=0;entryX=1;entryY=0;entryDx=0;entryDy=0;strokeColor=default;align=center;verticalAlign=middle;fontFamily=Helvetica;fontSize=17;fontColor=default;labelBackgroundColor=default;startSize=8;endArrow=none;endFill=0;endSize=8;" edge="1" parent="1" source="Cv_Al_MdcD2OkNO3VASJ-43" target="Cv_Al_MdcD2OkNO3VASJ-40">
          <mxGeometry relative="1" as="geometry" />
        </mxCell>
        <mxCell id="Cv_Al_MdcD2OkNO3VASJ-43" value="birthdate" style="ellipse;whiteSpace=wrap;html=1;align=center;rounded=0;strokeColor=default;verticalAlign=middle;fontFamily=Helvetica;fontSize=17;fontColor=default;labelBackgroundColor=default;fillColor=default;" vertex="1" parent="1">
          <mxGeometry x="580" y="90" width="100" height="40" as="geometry" />
        </mxCell>
        <mxCell id="Cv_Al_MdcD2OkNO3VASJ-44" value="Trades" style="shape=rhombus;perimeter=rhombusPerimeter;whiteSpace=wrap;html=1;align=center;rounded=0;strokeColor=default;verticalAlign=middle;fontFamily=Helvetica;fontSize=17;fontColor=default;labelBackgroundColor=default;fillColor=default;" vertex="1" parent="1">
          <mxGeometry x="-280" y="290" width="120" height="60" as="geometry" />
        </mxCell>
        <mxCell id="Cv_Al_MdcD2OkNO3VASJ-110" style="edgeStyle=none;shape=connector;curved=0;rounded=0;orthogonalLoop=1;jettySize=auto;html=1;exitX=0;exitY=0.5;exitDx=0;exitDy=0;entryX=1;entryY=0.25;entryDx=0;entryDy=0;strokeColor=default;align=center;verticalAlign=middle;fontFamily=Helvetica;fontSize=17;fontColor=default;labelBackgroundColor=default;startSize=8;endArrow=none;endFill=0;endSize=8;" edge="1" parent="1" source="Cv_Al_MdcD2OkNO3VASJ-47" target="Cv_Al_MdcD2OkNO3VASJ-40">
          <mxGeometry relative="1" as="geometry" />
        </mxCell>
        <mxCell id="Cv_Al_MdcD2OkNO3VASJ-47" value="nationality" style="ellipse;whiteSpace=wrap;html=1;align=center;rounded=0;strokeColor=default;verticalAlign=middle;fontFamily=Helvetica;fontSize=17;fontColor=default;labelBackgroundColor=default;fillColor=default;" vertex="1" parent="1">
          <mxGeometry x="580" y="140" width="100" height="40" as="geometry" />
        </mxCell>
        <mxCell id="Cv_Al_MdcD2OkNO3VASJ-118" style="edgeStyle=none;shape=connector;curved=0;rounded=0;orthogonalLoop=1;jettySize=auto;html=1;exitX=0;exitY=0.5;exitDx=0;exitDy=0;entryX=1;entryY=0.5;entryDx=0;entryDy=0;strokeColor=default;align=center;verticalAlign=middle;fontFamily=Helvetica;fontSize=17;fontColor=default;labelBackgroundColor=default;startSize=8;endArrow=none;endFill=0;endSize=8;" edge="1" parent="1" source="Cv_Al_MdcD2OkNO3VASJ-48" target="Cv_Al_MdcD2OkNO3VASJ-115">
          <mxGeometry relative="1" as="geometry" />
        </mxCell>
        <mxCell id="Cv_Al_MdcD2OkNO3VASJ-48" value="first_name" style="ellipse;whiteSpace=wrap;html=1;align=center;rounded=0;strokeColor=default;verticalAlign=middle;fontFamily=Helvetica;fontSize=17;fontColor=default;labelBackgroundColor=default;fillColor=default;" vertex="1" parent="1">
          <mxGeometry x="710" y="140" width="100" height="40" as="geometry" />
        </mxCell>
        <mxCell id="Cv_Al_MdcD2OkNO3VASJ-119" style="edgeStyle=none;shape=connector;curved=0;rounded=0;orthogonalLoop=1;jettySize=auto;html=1;exitX=0;exitY=0.5;exitDx=0;exitDy=0;entryX=1;entryY=0.5;entryDx=0;entryDy=0;strokeColor=default;align=center;verticalAlign=middle;fontFamily=Helvetica;fontSize=17;fontColor=default;labelBackgroundColor=default;startSize=8;endArrow=none;endFill=0;endSize=8;" edge="1" parent="1" source="Cv_Al_MdcD2OkNO3VASJ-49" target="Cv_Al_MdcD2OkNO3VASJ-115">
          <mxGeometry relative="1" as="geometry" />
        </mxCell>
        <mxCell id="Cv_Al_MdcD2OkNO3VASJ-49" value="last_name" style="ellipse;whiteSpace=wrap;html=1;align=center;rounded=0;strokeColor=default;verticalAlign=middle;fontFamily=Helvetica;fontSize=17;fontColor=default;labelBackgroundColor=default;fillColor=default;" vertex="1" parent="1">
          <mxGeometry x="710" y="240" width="100" height="40" as="geometry" />
        </mxCell>
        <mxCell id="Cv_Al_MdcD2OkNO3VASJ-117" style="edgeStyle=none;shape=connector;curved=0;rounded=0;orthogonalLoop=1;jettySize=auto;html=1;exitX=0;exitY=0.5;exitDx=0;exitDy=0;entryX=1;entryY=0.5;entryDx=0;entryDy=0;strokeColor=default;align=center;verticalAlign=middle;fontFamily=Helvetica;fontSize=17;fontColor=default;labelBackgroundColor=default;startSize=8;endArrow=none;endFill=0;endSize=8;" edge="1" parent="1" source="Cv_Al_MdcD2OkNO3VASJ-50" target="Cv_Al_MdcD2OkNO3VASJ-115">
          <mxGeometry relative="1" as="geometry" />
        </mxCell>
        <mxCell id="Cv_Al_MdcD2OkNO3VASJ-50" value="middle_name" style="ellipse;whiteSpace=wrap;html=1;align=center;rounded=0;strokeColor=default;verticalAlign=middle;fontFamily=Helvetica;fontSize=17;fontColor=default;labelBackgroundColor=default;fillColor=default;" vertex="1" parent="1">
          <mxGeometry x="710" y="190" width="100" height="40" as="geometry" />
        </mxCell>
        <mxCell id="Cv_Al_MdcD2OkNO3VASJ-105" style="edgeStyle=none;shape=connector;curved=0;rounded=0;orthogonalLoop=1;jettySize=auto;html=1;exitX=0.5;exitY=0;exitDx=0;exitDy=0;entryX=0.25;entryY=1;entryDx=0;entryDy=0;strokeColor=default;align=center;verticalAlign=middle;fontFamily=Helvetica;fontSize=17;fontColor=default;labelBackgroundColor=default;startSize=8;endArrow=none;endFill=0;endSize=8;" edge="1" parent="1" source="Cv_Al_MdcD2OkNO3VASJ-51" target="Cv_Al_MdcD2OkNO3VASJ-39">
          <mxGeometry relative="1" as="geometry" />
        </mxCell>
        <mxCell id="Cv_Al_MdcD2OkNO3VASJ-51" value="position" style="ellipse;whiteSpace=wrap;html=1;align=center;rounded=0;strokeColor=default;verticalAlign=middle;fontFamily=Helvetica;fontSize=17;fontColor=default;labelBackgroundColor=default;fillColor=default;" vertex="1" parent="1">
          <mxGeometry x="150" y="460" width="100" height="40" as="geometry" />
        </mxCell>
        <mxCell id="Cv_Al_MdcD2OkNO3VASJ-108" style="edgeStyle=none;shape=connector;curved=0;rounded=0;orthogonalLoop=1;jettySize=auto;html=1;exitX=0;exitY=0.5;exitDx=0;exitDy=0;entryX=1;entryY=0.5;entryDx=0;entryDy=0;strokeColor=default;align=center;verticalAlign=middle;fontFamily=Helvetica;fontSize=17;fontColor=default;labelBackgroundColor=default;startSize=8;endArrow=none;endFill=0;endSize=8;" edge="1" parent="1" source="Cv_Al_MdcD2OkNO3VASJ-52" target="Cv_Al_MdcD2OkNO3VASJ-39">
          <mxGeometry relative="1" as="geometry" />
        </mxCell>
        <mxCell id="Cv_Al_MdcD2OkNO3VASJ-52" value="number" style="ellipse;whiteSpace=wrap;html=1;align=center;rounded=0;strokeColor=default;verticalAlign=middle;fontFamily=Helvetica;fontSize=17;fontColor=default;labelBackgroundColor=default;fillColor=default;" vertex="1" parent="1">
          <mxGeometry x="350" y="370" width="100" height="40" as="geometry" />
        </mxCell>
        <mxCell id="Cv_Al_MdcD2OkNO3VASJ-107" style="edgeStyle=none;shape=connector;curved=0;rounded=0;orthogonalLoop=1;jettySize=auto;html=1;exitX=0;exitY=0.5;exitDx=0;exitDy=0;entryX=1;entryY=1;entryDx=0;entryDy=0;strokeColor=default;align=center;verticalAlign=middle;fontFamily=Helvetica;fontSize=17;fontColor=default;labelBackgroundColor=default;startSize=8;endArrow=none;endFill=0;endSize=8;" edge="1" parent="1" source="Cv_Al_MdcD2OkNO3VASJ-53" target="Cv_Al_MdcD2OkNO3VASJ-39">
          <mxGeometry relative="1" as="geometry" />
        </mxCell>
        <mxCell id="Cv_Al_MdcD2OkNO3VASJ-53" value="height" style="ellipse;whiteSpace=wrap;html=1;align=center;rounded=0;strokeColor=default;verticalAlign=middle;fontFamily=Helvetica;fontSize=17;fontColor=default;labelBackgroundColor=default;fillColor=default;" vertex="1" parent="1">
          <mxGeometry x="340" y="420" width="100" height="40" as="geometry" />
        </mxCell>
        <mxCell id="Cv_Al_MdcD2OkNO3VASJ-106" style="edgeStyle=none;shape=connector;curved=0;rounded=0;orthogonalLoop=1;jettySize=auto;html=1;exitX=0.5;exitY=0;exitDx=0;exitDy=0;entryX=0.75;entryY=1;entryDx=0;entryDy=0;strokeColor=default;align=center;verticalAlign=middle;fontFamily=Helvetica;fontSize=17;fontColor=default;labelBackgroundColor=default;startSize=8;endArrow=none;endFill=0;endSize=8;" edge="1" parent="1" source="Cv_Al_MdcD2OkNO3VASJ-54" target="Cv_Al_MdcD2OkNO3VASJ-39">
          <mxGeometry relative="1" as="geometry" />
        </mxCell>
        <mxCell id="Cv_Al_MdcD2OkNO3VASJ-54" value="weight" style="ellipse;whiteSpace=wrap;html=1;align=center;rounded=0;strokeColor=default;verticalAlign=middle;fontFamily=Helvetica;fontSize=17;fontColor=default;labelBackgroundColor=default;fillColor=default;" vertex="1" parent="1">
          <mxGeometry x="260" y="460" width="100" height="40" as="geometry" />
        </mxCell>
        <mxCell id="Cv_Al_MdcD2OkNO3VASJ-58" value="Location" style="whiteSpace=wrap;html=1;align=center;rounded=0;strokeColor=default;verticalAlign=middle;fontFamily=Helvetica;fontSize=17;fontColor=default;fillColor=default;" vertex="1" parent="1">
          <mxGeometry x="-180" y="-10" width="100" height="40" as="geometry" />
        </mxCell>
        <mxCell id="Cv_Al_MdcD2OkNO3VASJ-75" style="edgeStyle=none;shape=connector;curved=0;rounded=0;orthogonalLoop=1;jettySize=auto;html=1;exitX=1;exitY=0.5;exitDx=0;exitDy=0;entryX=0;entryY=0.25;entryDx=0;entryDy=0;strokeColor=default;align=center;verticalAlign=middle;fontFamily=Helvetica;fontSize=17;fontColor=default;labelBackgroundColor=default;startSize=8;endArrow=none;endFill=0;endSize=8;" edge="1" parent="1" source="Cv_Al_MdcD2OkNO3VASJ-71" target="Cv_Al_MdcD2OkNO3VASJ-58">
          <mxGeometry relative="1" as="geometry" />
        </mxCell>
        <mxCell id="Cv_Al_MdcD2OkNO3VASJ-71" value="city" style="ellipse;whiteSpace=wrap;html=1;align=center;rounded=0;strokeColor=default;verticalAlign=middle;fontFamily=Helvetica;fontSize=17;fontColor=default;labelBackgroundColor=default;fillColor=default;" vertex="1" parent="1">
          <mxGeometry x="-330" y="-20" width="100" height="40" as="geometry" />
        </mxCell>
        <mxCell id="Cv_Al_MdcD2OkNO3VASJ-76" style="edgeStyle=none;shape=connector;curved=0;rounded=0;orthogonalLoop=1;jettySize=auto;html=1;exitX=1;exitY=1;exitDx=0;exitDy=0;entryX=0;entryY=0;entryDx=0;entryDy=0;strokeColor=default;align=center;verticalAlign=middle;fontFamily=Helvetica;fontSize=17;fontColor=default;labelBackgroundColor=default;startSize=8;endArrow=none;endFill=0;endSize=8;" edge="1" parent="1" source="Cv_Al_MdcD2OkNO3VASJ-72" target="Cv_Al_MdcD2OkNO3VASJ-58">
          <mxGeometry relative="1" as="geometry" />
        </mxCell>
        <mxCell id="Cv_Al_MdcD2OkNO3VASJ-72" value="state" style="ellipse;whiteSpace=wrap;html=1;align=center;rounded=0;strokeColor=default;verticalAlign=middle;fontFamily=Helvetica;fontSize=17;fontColor=default;labelBackgroundColor=default;fillColor=default;" vertex="1" parent="1">
          <mxGeometry x="-320" y="-70" width="100" height="40" as="geometry" />
        </mxCell>
        <mxCell id="Cv_Al_MdcD2OkNO3VASJ-77" style="edgeStyle=none;shape=connector;curved=0;rounded=0;orthogonalLoop=1;jettySize=auto;html=1;exitX=0.5;exitY=1;exitDx=0;exitDy=0;entryX=0.25;entryY=0;entryDx=0;entryDy=0;strokeColor=default;align=center;verticalAlign=middle;fontFamily=Helvetica;fontSize=17;fontColor=default;labelBackgroundColor=default;startSize=8;endArrow=none;endFill=0;endSize=8;" edge="1" parent="1" source="Cv_Al_MdcD2OkNO3VASJ-73" target="Cv_Al_MdcD2OkNO3VASJ-58">
          <mxGeometry relative="1" as="geometry" />
        </mxCell>
        <mxCell id="Cv_Al_MdcD2OkNO3VASJ-73" value="nation" style="ellipse;whiteSpace=wrap;html=1;align=center;rounded=0;strokeColor=default;verticalAlign=middle;fontFamily=Helvetica;fontSize=17;fontColor=default;labelBackgroundColor=default;fillColor=default;" vertex="1" parent="1">
          <mxGeometry x="-210" y="-90" width="100" height="40" as="geometry" />
        </mxCell>
        <mxCell id="Cv_Al_MdcD2OkNO3VASJ-78" style="edgeStyle=none;shape=connector;curved=0;rounded=0;orthogonalLoop=1;jettySize=auto;html=1;exitX=0;exitY=1;exitDx=0;exitDy=0;entryX=0.75;entryY=0;entryDx=0;entryDy=0;strokeColor=default;align=center;verticalAlign=middle;fontFamily=Helvetica;fontSize=17;fontColor=default;labelBackgroundColor=default;startSize=8;endArrow=none;endFill=0;endSize=8;" edge="1" parent="1" source="Cv_Al_MdcD2OkNO3VASJ-74" target="Cv_Al_MdcD2OkNO3VASJ-58">
          <mxGeometry relative="1" as="geometry" />
        </mxCell>
        <mxCell id="Cv_Al_MdcD2OkNO3VASJ-74" value="location_id" style="ellipse;whiteSpace=wrap;html=1;align=center;fontStyle=4;rounded=0;strokeColor=default;verticalAlign=middle;fontFamily=Helvetica;fontSize=17;fontColor=default;labelBackgroundColor=default;fillColor=default;" vertex="1" parent="1">
          <mxGeometry x="-100" y="-90" width="100" height="40" as="geometry" />
        </mxCell>
        <mxCell id="Cv_Al_MdcD2OkNO3VASJ-80" value="1" style="edgeStyle=none;shape=connector;curved=0;rounded=0;orthogonalLoop=1;jettySize=auto;html=1;exitX=0.5;exitY=1;exitDx=0;exitDy=0;entryX=0.5;entryY=0;entryDx=0;entryDy=0;strokeColor=default;align=center;verticalAlign=middle;fontFamily=Helvetica;fontSize=17;fontColor=default;labelBackgroundColor=default;startSize=8;endArrow=none;endFill=0;endSize=8;" edge="1" parent="1" source="Cv_Al_MdcD2OkNO3VASJ-79" target="Cv_Al_MdcD2OkNO3VASJ-7">
          <mxGeometry x="-0.3333" y="10" relative="1" as="geometry">
            <mxPoint as="offset" />
          </mxGeometry>
        </mxCell>
        <mxCell id="Cv_Al_MdcD2OkNO3VASJ-81" value="1" style="edgeStyle=none;shape=connector;curved=0;rounded=0;orthogonalLoop=1;jettySize=auto;html=1;exitX=0.5;exitY=0;exitDx=0;exitDy=0;entryX=0.5;entryY=1;entryDx=0;entryDy=0;strokeColor=default;align=center;verticalAlign=middle;fontFamily=Helvetica;fontSize=17;fontColor=default;labelBackgroundColor=default;startSize=8;endArrow=none;endFill=0;endSize=8;" edge="1" parent="1" source="Cv_Al_MdcD2OkNO3VASJ-79" target="Cv_Al_MdcD2OkNO3VASJ-58">
          <mxGeometry x="-0.9615" y="-10" relative="1" as="geometry">
            <mxPoint as="offset" />
          </mxGeometry>
        </mxCell>
        <mxCell id="Cv_Al_MdcD2OkNO3VASJ-79" value="Plays in" style="shape=rhombus;perimeter=rhombusPerimeter;whiteSpace=wrap;html=1;align=center;rounded=0;strokeColor=default;verticalAlign=middle;fontFamily=Helvetica;fontSize=17;fontColor=default;labelBackgroundColor=default;fillColor=default;" vertex="1" parent="1">
          <mxGeometry x="-190" y="60" width="120" height="60" as="geometry" />
        </mxCell>
        <mxCell id="Cv_Al_MdcD2OkNO3VASJ-83" value="1" style="edgeStyle=none;shape=connector;curved=0;rounded=0;orthogonalLoop=1;jettySize=auto;html=1;exitX=0;exitY=0.5;exitDx=0;exitDy=0;entryX=1;entryY=0.75;entryDx=0;entryDy=0;strokeColor=default;align=center;verticalAlign=middle;fontFamily=Helvetica;fontSize=17;fontColor=default;labelBackgroundColor=default;startSize=8;endArrow=none;endFill=0;endSize=8;" edge="1" parent="1" source="Cv_Al_MdcD2OkNO3VASJ-82" target="Cv_Al_MdcD2OkNO3VASJ-7">
          <mxGeometry x="-0.931" y="-9" relative="1" as="geometry">
            <mxPoint as="offset" />
          </mxGeometry>
        </mxCell>
        <mxCell id="Cv_Al_MdcD2OkNO3VASJ-88" style="edgeStyle=none;shape=connector;curved=0;rounded=0;orthogonalLoop=1;jettySize=auto;html=1;exitX=0.5;exitY=1;exitDx=0;exitDy=0;entryX=0.5;entryY=0;entryDx=0;entryDy=0;strokeColor=default;align=center;verticalAlign=middle;fontFamily=Helvetica;fontSize=17;fontColor=default;labelBackgroundColor=default;startSize=8;endArrow=none;endFill=0;endSize=8;" edge="1" parent="1" source="Cv_Al_MdcD2OkNO3VASJ-82" target="Cv_Al_MdcD2OkNO3VASJ-85">
          <mxGeometry relative="1" as="geometry" />
        </mxCell>
        <mxCell id="Cv_Al_MdcD2OkNO3VASJ-82" value="Contract" style="shape=rhombus;perimeter=rhombusPerimeter;whiteSpace=wrap;html=1;align=center;rounded=0;strokeColor=default;verticalAlign=middle;fontFamily=Helvetica;fontSize=17;fontColor=default;labelBackgroundColor=default;fillColor=default;" vertex="1" parent="1">
          <mxGeometry x="10" y="370" width="120" height="60" as="geometry" />
        </mxCell>
        <mxCell id="Cv_Al_MdcD2OkNO3VASJ-85" value="cap_hit" style="ellipse;whiteSpace=wrap;html=1;align=center;rounded=0;strokeColor=default;verticalAlign=middle;fontFamily=Helvetica;fontSize=17;fontColor=default;labelBackgroundColor=default;fillColor=default;" vertex="1" parent="1">
          <mxGeometry x="20" y="460" width="100" height="40" as="geometry" />
        </mxCell>
        <mxCell id="Cv_Al_MdcD2OkNO3VASJ-90" value="1" style="edgeStyle=none;shape=connector;curved=0;rounded=0;orthogonalLoop=1;jettySize=auto;html=1;exitX=0;exitY=0.5;exitDx=0;exitDy=0;entryX=1;entryY=0;entryDx=0;entryDy=0;strokeColor=default;align=center;verticalAlign=middle;fontFamily=Helvetica;fontSize=17;fontColor=default;labelBackgroundColor=default;startSize=8;endArrow=none;endFill=0;endSize=8;" edge="1" parent="1" source="Cv_Al_MdcD2OkNO3VASJ-89" target="Cv_Al_MdcD2OkNO3VASJ-7">
          <mxGeometry x="-1" y="-10" relative="1" as="geometry">
            <mxPoint x="9" y="-6" as="offset" />
          </mxGeometry>
        </mxCell>
        <mxCell id="Cv_Al_MdcD2OkNO3VASJ-91" value="n" style="edgeStyle=none;shape=connector;curved=0;rounded=0;orthogonalLoop=1;jettySize=auto;html=1;exitX=1;exitY=0.5;exitDx=0;exitDy=0;entryX=0;entryY=0.5;entryDx=0;entryDy=0;strokeColor=default;align=center;verticalAlign=middle;fontFamily=Helvetica;fontSize=17;fontColor=default;labelBackgroundColor=default;startSize=8;endArrow=none;endFill=0;endSize=8;" edge="1" parent="1" source="Cv_Al_MdcD2OkNO3VASJ-89" target="Cv_Al_MdcD2OkNO3VASJ-41">
          <mxGeometry x="-1" y="10" relative="1" as="geometry">
            <mxPoint as="offset" />
          </mxGeometry>
        </mxCell>
        <mxCell id="Cv_Al_MdcD2OkNO3VASJ-93" style="edgeStyle=none;shape=connector;curved=0;rounded=0;orthogonalLoop=1;jettySize=auto;html=1;exitX=0.5;exitY=0;exitDx=0;exitDy=0;entryX=0.5;entryY=1;entryDx=0;entryDy=0;strokeColor=default;align=center;verticalAlign=middle;fontFamily=Helvetica;fontSize=17;fontColor=default;labelBackgroundColor=default;startSize=8;endArrow=none;endFill=0;endSize=8;" edge="1" parent="1" source="Cv_Al_MdcD2OkNO3VASJ-89" target="Cv_Al_MdcD2OkNO3VASJ-92">
          <mxGeometry relative="1" as="geometry" />
        </mxCell>
        <mxCell id="Cv_Al_MdcD2OkNO3VASJ-89" value="Coaches" style="shape=rhombus;perimeter=rhombusPerimeter;whiteSpace=wrap;html=1;align=center;rounded=0;strokeColor=default;verticalAlign=middle;fontFamily=Helvetica;fontSize=17;fontColor=default;labelBackgroundColor=default;fillColor=default;" vertex="1" parent="1">
          <mxGeometry y="10" width="120" height="60" as="geometry" />
        </mxCell>
        <mxCell id="Cv_Al_MdcD2OkNO3VASJ-92" value="role" style="ellipse;whiteSpace=wrap;html=1;align=center;rounded=0;strokeColor=default;verticalAlign=middle;fontFamily=Helvetica;fontSize=17;fontColor=default;labelBackgroundColor=default;fillColor=default;" vertex="1" parent="1">
          <mxGeometry x="10" y="-40" width="100" height="40" as="geometry" />
        </mxCell>
        <mxCell id="Cv_Al_MdcD2OkNO3VASJ-97" value="n" style="edgeStyle=none;shape=connector;curved=0;rounded=0;orthogonalLoop=1;jettySize=auto;html=1;exitX=0.5;exitY=1;exitDx=0;exitDy=0;entryX=0;entryY=0;entryDx=0;entryDy=0;strokeColor=default;align=center;verticalAlign=middle;fontFamily=Helvetica;fontSize=17;fontColor=default;labelBackgroundColor=default;startSize=8;endArrow=none;endFill=0;endSize=8;" edge="1" parent="1" source="Cv_Al_MdcD2OkNO3VASJ-94" target="Cv_Al_MdcD2OkNO3VASJ-39">
          <mxGeometry x="-0.9315" y="-13" relative="1" as="geometry">
            <mxPoint as="offset" />
          </mxGeometry>
        </mxCell>
        <mxCell id="Cv_Al_MdcD2OkNO3VASJ-94" value="transaction" style="shape=rhombus;perimeter=rhombusPerimeter;whiteSpace=wrap;html=1;align=center;rounded=0;strokeColor=default;verticalAlign=middle;fontFamily=Helvetica;fontSize=17;fontColor=default;labelBackgroundColor=default;fillColor=default;" vertex="1" parent="1">
          <mxGeometry x="40" y="150" width="120" height="60" as="geometry" />
        </mxCell>
        <mxCell id="Cv_Al_MdcD2OkNO3VASJ-104" style="edgeStyle=none;shape=connector;curved=0;rounded=0;orthogonalLoop=1;jettySize=auto;html=1;exitX=0;exitY=1;exitDx=0;exitDy=0;entryX=1;entryY=0;entryDx=0;entryDy=0;strokeColor=default;align=center;verticalAlign=middle;fontFamily=Helvetica;fontSize=17;fontColor=default;labelBackgroundColor=default;startSize=8;endArrow=none;endFill=0;endSize=8;" edge="1" parent="1" source="Cv_Al_MdcD2OkNO3VASJ-100" target="Cv_Al_MdcD2OkNO3VASJ-94">
          <mxGeometry relative="1" as="geometry" />
        </mxCell>
        <mxCell id="Cv_Al_MdcD2OkNO3VASJ-100" value="date" style="ellipse;whiteSpace=wrap;html=1;align=center;rounded=0;strokeColor=default;verticalAlign=middle;fontFamily=Helvetica;fontSize=17;fontColor=default;labelBackgroundColor=default;fillColor=default;" vertex="1" parent="1">
          <mxGeometry x="140" y="110" width="100" height="40" as="geometry" />
        </mxCell>
        <mxCell id="Cv_Al_MdcD2OkNO3VASJ-102" style="edgeStyle=none;shape=connector;curved=0;rounded=0;orthogonalLoop=1;jettySize=auto;html=1;exitX=0;exitY=0;exitDx=0;exitDy=0;entryX=1;entryY=1;entryDx=0;entryDy=0;strokeColor=default;align=center;verticalAlign=middle;fontFamily=Helvetica;fontSize=17;fontColor=default;labelBackgroundColor=default;startSize=8;endArrow=none;endFill=0;endSize=8;" edge="1" parent="1" source="Cv_Al_MdcD2OkNO3VASJ-101" target="Cv_Al_MdcD2OkNO3VASJ-94">
          <mxGeometry relative="1" as="geometry" />
        </mxCell>
        <mxCell id="Cv_Al_MdcD2OkNO3VASJ-101" value="type" style="ellipse;whiteSpace=wrap;html=1;align=center;rounded=0;strokeColor=default;verticalAlign=middle;fontFamily=Helvetica;fontSize=17;fontColor=default;labelBackgroundColor=default;fillColor=default;" vertex="1" parent="1">
          <mxGeometry x="140" y="200" width="100" height="40" as="geometry" />
        </mxCell>
        <mxCell id="Cv_Al_MdcD2OkNO3VASJ-116" style="edgeStyle=none;shape=connector;curved=0;rounded=0;orthogonalLoop=1;jettySize=auto;html=1;exitX=0;exitY=0.5;exitDx=0;exitDy=0;entryX=1;entryY=0.5;entryDx=0;entryDy=0;strokeColor=default;align=center;verticalAlign=middle;fontFamily=Helvetica;fontSize=17;fontColor=default;labelBackgroundColor=default;startSize=8;endArrow=none;endFill=0;endSize=8;" edge="1" parent="1" source="Cv_Al_MdcD2OkNO3VASJ-115" target="Cv_Al_MdcD2OkNO3VASJ-40">
          <mxGeometry relative="1" as="geometry" />
        </mxCell>
        <mxCell id="Cv_Al_MdcD2OkNO3VASJ-115" value="name" style="ellipse;whiteSpace=wrap;html=1;align=center;rounded=0;strokeColor=default;verticalAlign=middle;fontFamily=Helvetica;fontSize=17;fontColor=default;labelBackgroundColor=default;fillColor=default;" vertex="1" parent="1">
          <mxGeometry x="580" y="190" width="100" height="40" as="geometry" />
        </mxCell>
        <mxCell id="Cv_Al_MdcD2OkNO3VASJ-122" style="edgeStyle=none;shape=connector;curved=0;rounded=0;orthogonalLoop=1;jettySize=auto;html=1;exitX=0;exitY=0;exitDx=0;exitDy=0;entryX=1;entryY=1;entryDx=0;entryDy=0;strokeColor=default;align=center;verticalAlign=middle;fontFamily=Helvetica;fontSize=17;fontColor=default;labelBackgroundColor=default;startSize=8;endArrow=none;endFill=0;endSize=8;" edge="1" parent="1" source="Cv_Al_MdcD2OkNO3VASJ-120" target="Cv_Al_MdcD2OkNO3VASJ-41">
          <mxGeometry relative="1" as="geometry" />
        </mxCell>
        <mxCell id="Cv_Al_MdcD2OkNO3VASJ-123" value="" style="edgeStyle=none;shape=connector;curved=0;rounded=0;orthogonalLoop=1;jettySize=auto;html=1;exitX=0;exitY=1;exitDx=0;exitDy=0;entryX=0.75;entryY=0;entryDx=0;entryDy=0;strokeColor=default;align=center;verticalAlign=middle;fontFamily=Helvetica;fontSize=17;fontColor=default;labelBackgroundColor=default;startSize=8;endArrow=none;endFill=0;endSize=8;" edge="1" parent="1" source="Cv_Al_MdcD2OkNO3VASJ-120" target="Cv_Al_MdcD2OkNO3VASJ-39">
          <mxGeometry x="-0.0347" y="-25" relative="1" as="geometry">
            <mxPoint as="offset" />
          </mxGeometry>
        </mxCell>
        <mxCell id="Cv_Al_MdcD2OkNO3VASJ-120" value="d" style="ellipse;whiteSpace=wrap;html=1;aspect=fixed;rounded=0;strokeColor=default;align=center;verticalAlign=middle;fontFamily=Helvetica;fontSize=17;fontColor=default;labelBackgroundColor=default;fillColor=default;" vertex="1" parent="1">
          <mxGeometry x="370" y="195" width="30" height="30" as="geometry" />
        </mxCell>
        <mxCell id="Cv_Al_MdcD2OkNO3VASJ-126" value="" style="ellipse;whiteSpace=wrap;html=1;align=center;aspect=fixed;fillColor=none;strokeColor=none;resizable=0;perimeter=centerPerimeter;rotatable=0;allowArrows=0;points=[];outlineConnect=1;rounded=0;verticalAlign=middle;fontFamily=Helvetica;fontSize=17;fontColor=default;labelBackgroundColor=default;" vertex="1" parent="1">
          <mxGeometry x="280" y="150" width="10" height="10" as="geometry" />
        </mxCell>
        <mxCell id="Cv_Al_MdcD2OkNO3VASJ-127" value="" style="endArrow=none;html=1;rounded=0;strokeColor=none;align=center;verticalAlign=middle;fontFamily=Helvetica;fontSize=17;fontColor=default;labelBackgroundColor=default;edgeStyle=none;startSize=8;endSize=8;curved=1;" edge="1" parent="1">
          <mxGeometry width="50" height="50" relative="1" as="geometry">
            <mxPoint x="270" y="180" as="sourcePoint" />
            <mxPoint x="320" y="190" as="targetPoint" />
            <Array as="points">
              <mxPoint x="310" y="140" />
            </Array>
          </mxGeometry>
        </mxCell>
      </root>
    </mxGraphModel>
  </diagram>
</mxfile>
